<?xml version="1.0" standalone="no"?><svg xmlns="http://www.w3.org/2000/svg" viewBox="0 0 1440 320"><path fill="#00cba9" fill-opacity="1" d="M0,224L11.4,213.3C22.9,203,46,181,69,176C91.4,171,114,181,137,208C160,235,183,277,206,250.7C228.6,224,251,128,274,112C297.1,96,320,160,343,186.7C365.7,213,389,203,411,197.3C434.3,192,457,192,480,165.3C502.9,139,526,85,549,80C571.4,75,594,117,617,133.3C640,149,663,139,686,133.3C708.6,128,731,128,754,138.7C777.1,149,800,171,823,176C845.7,181,869,171,891,181.3C914.3,192,937,224,960,213.3C982.9,203,1006,149,1029,128C1051.4,107,1074,117,1097,128C1120,139,1143,149,1166,160C1188.6,171,1211,181,1234,208C1257.1,235,1280,277,1303,261.3C1325.7,245,1349,171,1371,133.3C1394.3,96,1417,96,1429,96L1440,96L1440,0L1428.6,0C1417.1,0,1394,0,1371,0C1348.6,0,1326,0,1303,0C1280,0,1257,0,1234,0C1211.4,0,1189,0,1166,0C1142.9,0,1120,0,1097,0C1074.3,0,1051,0,1029,0C1005.7,0,983,0,960,0C937.1,0,914,0,891,0C868.6,0,846,0,823,0C800,0,777,0,754,0C731.4,0,709,0,686,0C662.9,0,640,0,617,0C594.3,0,571,0,549,0C525.7,0,503,0,480,0C457.1,0,434,0,411,0C388.6,0,366,0,343,0C320,0,297,0,274,0C251.4,0,229,0,206,0C182.9,0,160,0,137,0C114.3,0,91,0,69,0C45.7,0,23,0,11,0L0,0Z"></path></svg>